<svg width="32" height="32" viewBox="0 0 32 32" fill="none" xmlns="http://www.w3.org/2000/svg">
<path d="M8.34783 6.95657C8.34783 6.24409 8.35233 6.08995 8.36568 5.98852C8.48897 5.05204 9.22589 4.31512 10.1624 4.19183C10.2638 4.17847 10.4179 4.17397 11.1304 4.17397H19.0609C20.2641 4.17397 21.041 4.1756 21.6323 4.22391C22.1993 4.27023 22.4095 4.34886 22.5127 4.40144C22.9054 4.60152 23.2246 4.92078 23.4247 5.31346C23.4773 5.41665 23.5559 5.62685 23.6022 6.19379C23.6506 6.7851 23.6522 7.56202 23.6522 8.76525V13.7443L23.0409 13.133C22.2259 12.318 20.9045 12.318 20.0895 13.133C19.2745 13.948 19.2745 15.2694 20.0895 16.0844L24.2634 20.2583C25.0784 21.0733 26.3998 21.0733 27.2148 20.2583L31.3887 16.0844C32.2038 15.2694 32.2038 13.948 31.3887 13.133C30.5737 12.318 29.2523 12.318 28.4373 13.133L27.8261 13.7443V8.68477C27.8261 7.58466 27.8262 6.63561 27.7623 5.8539C27.6949 5.02884 27.546 4.20821 27.1437 3.41856C26.5434 2.2405 25.5856 1.28272 24.4076 0.682473C23.6179 0.280123 22.7973 0.131289 21.9722 0.0638796C21.1905 1.07155e-05 20.2415 4.22292e-05 19.1414 8.24077e-05L11.0137 3.98657e-05C10.4842 -0.000241384 10.0287 -0.000483244 9.61758 0.0536443C6.80811 0.423516 4.59735 2.63427 4.22748 5.44372C4.17335 5.85485 4.17359 6.31029 4.17387 6.83986L4.17391 6.95657C4.17391 8.10916 5.10828 9.04351 6.26087 9.04351C7.41346 9.04351 8.34783 8.10916 8.34783 6.95657Z" fill="#615FFF"/>
<path d="M0.611256 15.9156C-0.203752 16.7306 -0.203752 18.052 0.611256 18.867C1.42626 19.682 2.74765 19.682 3.56266 18.867L4.17391 18.2557V23.3152C4.17387 24.4153 4.17384 25.3644 4.23771 26.1461C4.30512 26.9712 4.45395 27.7918 4.85631 28.5814C5.45656 29.7595 6.41435 30.7173 7.59241 31.3175C8.38207 31.7199 9.2027 31.8687 10.0278 31.9361C10.8095 32 11.7586 32 12.8587 31.9999L20.9863 32C21.5159 32.0002 21.9713 32.0005 22.3824 31.9464C25.1919 31.5765 27.4026 29.3657 27.7725 26.5563C27.8267 26.1451 27.8264 25.6897 27.8261 25.1601L27.8261 25.0434C27.8261 23.8908 26.8917 22.9565 25.7391 22.9565C24.5865 22.9565 23.6522 23.8908 23.6522 25.0434C23.6522 25.7559 23.6477 25.9101 23.6343 26.0115C23.511 26.948 22.7741 27.6849 21.8376 27.8082C21.7362 27.8215 21.582 27.826 20.8696 27.826H12.9391C11.7359 27.826 10.959 27.8244 10.3677 27.7761C9.80071 27.7298 9.59051 27.6511 9.48733 27.5986C9.09464 27.3985 8.77537 27.0792 8.57529 26.6865C8.52271 26.5833 8.44408 26.3732 8.39776 25.8062C8.34945 25.2149 8.34783 24.438 8.34783 23.2347V18.2557L8.95908 18.867C9.77409 19.682 11.0955 19.682 11.9105 18.867C12.7255 18.052 12.7255 16.7306 11.9105 15.9156L7.73657 11.7417C6.92157 10.9267 5.60018 10.9267 4.78517 11.7417L0.611256 15.9156Z" fill="#615FFF"/>
</svg>
